<svg xmlns="http://www.w3.org/2000/svg" xmlns:xlink="http://www.w3.org/1999/xlink" viewBox="150 150 200 200" width="417" height="417" x="41.5px" y="41.5px" preserveAspectRatio="none"><defs/><style>.aD6z1nYkhcolor99c05706-4a98-48d6-b203-3b40c3726e51 {fill:#E3E3E3;fill-opacity:0.1;}.aD6z1nYkhstrokeColor-str99c05706-4a98-48d6-b203-3b40c3726e51 {stroke:#F1EC40;stroke-opacity:1;}.aLgOaV3zRcolors-099c05706-4a98-48d6-b203-3b40c3726e51 {fill:#F1EC40;fill-opacity:1;}.aLgOaV3zRcolors-399c05706-4a98-48d6-b203-3b40c3726e51 {fill:#575757;fill-opacity:1;}.aLgOaV3zRcolors-499c05706-4a98-48d6-b203-3b40c3726e51 {fill:#4B4B4B;fill-opacity:1;}.aLgOaV3zRcolors-599c05706-4a98-48d6-b203-3b40c3726e51 {fill:#F9CADD;fill-opacity:1;}.aLgOaV3zRcolors-699c05706-4a98-48d6-b203-3b40c3726e51 {fill:#D0D0D0;fill-opacity:1;}.aLgOaV3zRcolors-799c05706-4a98-48d6-b203-3b40c3726e51 {fill:#2F2F2F;fill-opacity:1;}.apuu6A5MB-0filter-floo99c05706-4a98-48d6-b203-3b40c3726e51 {flood-color:#F1EC40;flood-opacity:0.5;}.icon299c05706-4a98-48d6-b203-3b40c3726e51 {fill:#FF87B7;fill-opacity:1;}.icon399c05706-4a98-48d6-b203-3b40c3726e51 {fill:#BCBCBC;fill-opacity:1;}</style><defs>
      <filter x="150" y="150" width="200" height="200" id="99c05706-4a98-48d6-b203-3b40c3726e51puu6A5MB-" filterUnits="userSpaceOnUse" primitiveUnits="userSpaceOnUse" color-interpolation-filters="sRGB">
        <feMerge><feMergeNode in="SourceGraphic"/></feMerge>
      </filter></defs><g opacity="1" transform="rotate(0 252.0001 303.8861)">
<svg width="0" height="0" x="252.0001" y="303.8861" version="1.1" preserveAspectRatio="none" viewBox="0 0 0 0">
  <g transform="matrix(1 0 0 1 0 0)" class="aD6z1nYkhcolor99c05706-4a98-48d6-b203-3b40c3726e51"/>
</svg>
</g><g opacity="1" transform="rotate(0 150 150)">
<svg width="200" height="200" x="150" y="150" version="1.1" preserveAspectRatio="none" viewBox="5 5 90 90">
  <g transform="matrix(1 0 0 1 0 0)" class="aLgOaV3zRcolors-099c05706-4a98-48d6-b203-3b40c3726e51"><path d="M50,5C25.147,5,5,25.147,5,50c0,24.853,20.147,45,45,45s45-20.147,45-45C95,25.147,74.853,5,50,5z M76.916,69.497  c-5.908,1.39-9.384-3.939-9.384-3.939l-6.372-9.732H50.85h-0.349h-0.408h-0.349h-10.31l-6.372,9.732c0,0-3.476,5.329-9.384,3.939  s-4.402-6.487-4.402-6.487l4.287-24.444c0,0,1.739-7.646,9.384-7.994c7.646-0.347,10.658,4.75,10.658,4.75h5.909h1.566h5.909  c0,0,3.012-5.098,10.658-4.75c7.646,0.347,9.384,7.994,9.384,7.994l4.287,24.444C81.318,63.01,82.824,68.107,76.916,69.497z"/></g>
</svg>
</g></svg>