<svg xmlns="http://www.w3.org/2000/svg" xmlns:xlink="http://www.w3.org/1999/xlink" viewBox="335 76.591 380 333.8179" width="417" height="366.3212218421053" x="41.5px" y="66.8394px" preserveAspectRatio="none"><defs/><style>.a6izo4zJpcolor99c05706-4a98-48d6-b203-3b40c3726e51 {fill:#000000;fill-opacity:1;}.a6izo4zJpstrokeColor-str99c05706-4a98-48d6-b203-3b40c3726e51 {stroke:#3F3F3F;stroke-opacity:1;}.aD6z1nYkhcolor99c05706-4a98-48d6-b203-3b40c3726e51 {fill:#000000;fill-opacity:1;}.aD6z1nYkhstrokeColor-str99c05706-4a98-48d6-b203-3b40c3726e51 {stroke:#3F3F3F;stroke-opacity:1;}</style><g opacity="1" transform="rotate(0 430.7962 386.2673)">
<svg width="188.4077" height="24.1416" x="430.7962" y="386.2673" version="1.1" preserveAspectRatio="none" viewBox="1.56 -27.28 277.2 35.519999999999996">
  <g transform="matrix(1 0 0 1 0 0)" class="a6izo4zJpcolor99c05706-4a98-48d6-b203-3b40c3726e51"><path id="id-99c05706-4a98-48d6-b203-3b40c3726e516izo4zJp11" d="M5.12-22.84Q6.80-24.68 9.20-25.74Q11.60-26.80 14.16-26.80Q16.72-26.80 18.60-26.24Q20.48-25.68 22-24.72L22-24.72Q25.16-22.68 26.64-19.28L26.64-19.28L23.36-19.28Q22.16-21.44 20.02-22.66Q17.88-23.88 15.16-23.88Q12.44-23.88 10.52-23.06Q8.60-22.24 7.28-20.80L7.28-20.80Q4.56-17.84 4.56-13.24L4.56-13.24Q4.56-8.60 7.24-5.68L7.24-5.68Q10.08-2.60 14.76-2.60L14.76-2.60Q18.52-2.60 21.24-4.92L21.24-4.92Q24.12-7.36 24.12-11.36L24.12-11.36L14.44-11.36L14.44-14.08L26.88-14.08L26.88 0L24.12 0L24.12-4.68Q21.84-1.24 17.80-0.08L17.80-0.08Q16.32 0.32 13.90 0.32Q11.48 0.32 9.08-0.74Q6.68-1.80 5-3.64L5-3.64Q1.56-7.40 1.56-13.24L1.56-13.24Q1.56-19 5.12-22.84L5.12-22.84Z M51.12 0L51.12-3.20Q48.72 0.32 43.96 0.32L43.96 0.32Q39.64 0.32 36.92-2.68L36.92-2.68Q34.28-5.64 34.28-10L34.28-10Q34.28-14.36 36.92-17.32L36.92-17.32Q39.64-20.32 44.16-20.32Q48.68-20.32 51.12-16.76L51.12-16.76L51.12-20L54.12-20L54.12 0L51.12 0ZM44.36-2.40L44.36-2.40Q47.60-2.40 49.48-4.64L49.48-4.64Q51.28-6.76 51.28-10L51.28-10Q51.28-13.24 49.48-15.36L49.48-15.36Q47.60-17.60 44.36-17.60L44.36-17.60Q41.16-17.60 39.16-15.36L39.16-15.36Q37.28-13.24 37.28-10L37.28-10Q37.28-6.76 39.16-4.64L39.16-4.64Q41.16-2.40 44.36-2.40Z M66.32-20L66.32-16.96Q68.32-20.32 72.40-20.32L72.40-20.32Q74.40-20.32 76.10-19.26Q77.80-18.20 78.76-16.28L78.76-16.28Q80.12-18.80 83-19.88L83-19.88Q84.16-20.32 85.62-20.32Q87.08-20.32 88.42-19.74Q89.76-19.16 90.80-18.08L90.80-18.08Q93.04-15.68 93.04-12.08L93.04-12.08L93.04 0L90.04 0L90.04-12Q90.04-14.48 88.64-16.08L88.64-16.08Q87.24-17.60 85.08-17.60L85.08-17.60Q82.80-17.60 81.28-16.12L81.28-16.12Q79.68-14.60 79.68-11.96L79.68-11.96L79.68 0L76.68 0L76.68-12Q76.68-14.48 75.28-16.08L75.28-16.08Q73.88-17.60 71.72-17.60L71.72-17.60Q69.44-17.60 67.92-16.12L67.92-16.12Q66.32-14.60 66.32-11.96L66.32-11.96L66.32 0L63.32 0L63.32-20L66.32-20Z M102.04 0L102.04-20L105.04-20L105.04 0L102.04 0ZM101.92-27.28L105.16-27.28L105.16-23.36L101.92-23.36L101.92-27.28Z M114.24-20L117.24-20L117.24-16.88Q118.32-18.32 119.88-19.32Q121.44-20.32 123.44-20.32Q125.44-20.32 126.88-19.76Q128.32-19.20 129.40-18.08L129.40-18.08Q131.88-15.64 131.88-11.64L131.88-11.64L131.88 0L128.88 0L128.88-11.56Q128.88-14.32 127.32-15.96Q125.76-17.60 123.28-17.60L123.28-17.60Q120.76-17.60 119-15.92L119-15.92Q117.24-14.20 117.24-11.52L117.24-11.52L117.24 0L114.24 0L114.24-20Z M156.48-16.80L156.48-16.80L156.48-20L159.48-20L159.48-0.60Q159.48 3.72 157.02 5.98Q154.56 8.24 150.40 8.24Q146.24 8.24 143.90 6.64Q141.56 5.04 140.72 2.40L140.72 2.40L144.04 2.40Q145.32 5.52 149.88 5.52L149.88 5.52Q153.36 5.52 154.92 3.92Q156.48 2.32 156.48-0.80L156.48-0.80L156.48-3.56Q154.04 0 149.32 0L149.32 0Q145 0 142.28-2.96L142.28-2.96Q139.64-5.84 139.64-10.16L139.64-10.16Q139.64-14.48 142.28-17.36L142.28-17.36Q145-20.32 149.54-20.32Q154.08-20.32 156.48-16.80ZM149.72-2.72L149.72-2.72Q151.36-2.72 152.64-3.30Q153.92-3.88 154.84-4.88L154.84-4.88Q156.64-6.96 156.64-10.16L156.64-10.16Q156.64-13.36 154.84-15.44L154.84-15.44Q152.88-17.60 149.72-17.60L149.72-17.60Q146.48-17.60 144.52-15.44L144.52-15.44Q142.64-13.32 142.64-10.16L142.64-10.16Q142.64-7 144.52-4.88L144.52-4.88Q146.48-2.72 149.72-2.72Z M183.72-22.84Q185.40-24.68 187.80-25.74Q190.20-26.80 192.76-26.80Q195.32-26.80 197.20-26.24Q199.08-25.68 200.60-24.72L200.60-24.72Q203.76-22.68 205.24-19.28L205.24-19.28L201.96-19.28Q200.76-21.44 198.62-22.66Q196.48-23.88 193.76-23.88Q191.04-23.88 189.12-23.06Q187.20-22.24 185.88-20.80L185.88-20.80Q183.16-17.84 183.16-13.24L183.16-13.24Q183.16-8.60 185.84-5.68L185.84-5.68Q188.68-2.60 193.36-2.60L193.36-2.60Q197.12-2.60 199.84-4.92L199.84-4.92Q202.72-7.36 202.72-11.36L202.72-11.36L193.04-11.36L193.04-14.08L205.48-14.08L205.48 0L202.72 0L202.72-4.68Q200.44-1.24 196.40-0.08L196.40-0.08Q194.92 0.32 192.50 0.32Q190.08 0.32 187.68-0.74Q185.28-1.80 183.60-3.64L183.60-3.64Q180.16-7.40 180.16-13.24L180.16-13.24Q180.16-19 183.72-22.84L183.72-22.84Z M223.04-2.40L223.04-2.40Q227.08-2.40 228.84-5.76L228.84-5.76L232.12-5.76Q231.08-3.04 228.82-1.36Q226.56 0.32 223.00 0.32L223.00 0.32Q218.48 0.32 215.64-2.68L215.64-2.68Q212.88-5.60 212.88-10L212.88-10Q212.88-14.44 215.52-17.32L215.52-17.32Q218.32-20.32 222.80-20.32L222.80-20.32Q227.28-20.32 230.08-17.32L230.08-17.32Q232.72-14.44 232.72-10L232.72-10L232.72-8.80L215.96-8.80Q216.28-6.04 218.16-4.24L218.16-4.24Q220.08-2.40 223.04-2.40ZM222.80-17.60L222.80-17.60Q220.04-17.60 218.16-15.88L218.16-15.88Q216.40-14.24 216.00-11.60L216.00-11.60L229.60-11.60Q229.20-14.24 227.44-15.88L227.44-15.88Q225.56-17.60 222.80-17.60Z M256.00 0L256.00-3.20Q253.60 0.32 248.84 0.32L248.84 0.32Q244.52 0.32 241.80-2.68L241.80-2.68Q239.16-5.64 239.16-10L239.16-10Q239.16-14.36 241.80-17.32L241.80-17.32Q244.52-20.32 249.04-20.32Q253.56-20.32 256.00-16.76L256.00-16.76L256.00-20L259.00-20L259.00 0L256.00 0ZM249.24-2.40L249.24-2.40Q252.48-2.40 254.36-4.64L254.36-4.64Q256.16-6.76 256.16-10L256.16-10Q256.16-13.24 254.36-15.36L254.36-15.36Q252.48-17.60 249.24-17.60L249.24-17.60Q246.04-17.60 244.04-15.36L244.04-15.36Q242.16-13.24 242.16-10L242.16-10Q242.16-6.76 244.04-4.64L244.04-4.64Q246.04-2.40 249.24-2.40Z M278.56-20.32L278.76-20.32L278.76-17.32L278.40-17.32Q275.16-17.32 273.12-14.72L273.12-14.72Q271.20-12.24 271.20-8.80L271.20-8.80L271.20 0L268.20 0L268.20-20L271.20-20L271.20-15.08Q272.16-18.20 275.36-19.68L275.36-19.68Q276.68-20.32 278.56-20.32L278.56-20.32Z"/></g>
</svg>
</g><g opacity="1" transform="rotate(0 335 297.5418)">
<svg width="380" height="61.9015" x="335" y="297.5418" version="1.1" preserveAspectRatio="none" viewBox="2.5781 -28.0078 171.9336 28.0078">
  <g transform="matrix(1 0 0 1 0 0)" class="aD6z1nYkhcolor99c05706-4a98-48d6-b203-3b40c3726e51"><path id="id-99c05706-4a98-48d6-b203-3b40c3726e51D6z1nYkh6" d="M30.59-14.00L30.59-2.56Q30.59-2.01 30.39-1.54Q30.20-1.07 29.85-0.73Q29.51-0.39 29.04-0.20Q28.57 0 28.03 0L28.03 0L9.71 0Q9.00 0 8.19-0.17Q7.38-0.33 6.59-0.68Q5.80-1.04 5.08-1.59Q4.36-2.15 3.80-2.94Q3.24-3.73 2.91-4.78Q2.58-5.82 2.58-7.13L2.58-7.13L2.58-20.88Q2.58-21.58 2.74-22.39Q2.91-23.20 3.26-23.99Q3.61-24.79 4.18-25.51Q4.75-26.23 5.54-26.79Q6.33-27.34 7.36-27.68Q8.40-28.01 9.71-28.01L9.71-28.01L30.35-28.01L30.35-22.93L9.71-22.93Q8.71-22.93 8.18-22.40Q7.66-21.88 7.66-20.84L7.66-20.84L7.66-7.13Q7.66-6.15 8.19-5.62Q8.73-5.08 9.71-5.08L9.71-5.08L25.51-5.08L25.51-11.45L11.99-11.45L11.99-16.56L28.03-16.56Q28.57-16.56 29.04-16.36Q29.51-16.15 29.85-15.80Q30.20-15.45 30.39-14.99Q30.59-14.53 30.59-14.00L30.59-14.00Z M53.52-16.29L53.52-11.72L35.20-11.72L35.20-16.29L53.52-16.29Z M82.83-28.01L82.83-22.93L71.64-22.93L71.64 0L66.56 0L66.56-22.93L55.35-22.93L55.35-28.01L82.83-28.01Z M109.59-16.56L109.59-11.45L93.55-11.45L93.55-16.56L109.59-16.56ZM111.88-5.08L111.88 0L93.55 0Q92.50 0 91.25-0.37Q90-0.74 88.94-1.59Q87.87-2.44 87.16-3.80Q86.45-5.16 86.45-7.13L86.45-7.13L86.45-25.45Q86.45-25.98 86.64-26.45Q86.84-26.91 87.18-27.27Q87.52-27.62 87.99-27.81Q88.46-28.01 89.00-28.01L89.00-28.01L111.88-28.01L111.88-22.93L91.52-22.93L91.52-7.13Q91.52-6.13 92.05-5.61Q92.58-5.08 93.59-5.08L93.59-5.08L111.88-5.08Z M141.68-5.08L141.68 0L123.36 0Q122.66 0 121.85-0.17Q121.04-0.33 120.24-0.68Q119.45-1.04 118.73-1.59Q118.01-2.15 117.45-2.94Q116.89-3.73 116.56-4.78Q116.23-5.82 116.23-7.13L116.23-7.13L116.23-20.88Q116.23-21.58 116.40-22.39Q116.56-23.20 116.91-23.99Q117.27-24.79 117.83-25.51Q118.40-26.23 119.19-26.79Q119.98-27.34 121.02-27.68Q122.05-28.01 123.36-28.01L123.36-28.01L141.68-28.01L141.68-22.93L123.36-22.93Q122.36-22.93 121.84-22.40Q121.31-21.88 121.31-20.84L121.31-20.84L121.31-7.13Q121.31-6.15 121.85-5.62Q122.38-5.08 123.36-5.08L123.36-5.08L141.68-5.08Z M151.60-28.01L151.60-16.56L169.43-16.56L169.43-28.01L174.51-28.01L174.51 0L169.43 0L169.43-11.45L151.60-11.45L151.60 0L146.52 0L146.52-28.01L151.60-28.01Z"/></g>
</svg>
</g><g opacity="1" transform="rotate(0 430 76.591)">
<svg width="190" height="190" x="430" y="76.591" version="1.1" preserveAspectRatio="none" viewBox="5 5 90 90">
  <g transform="matrix(1 0 0 1 0 0)" style="fill:#000000;fill-opacity:1;"><path d="M50,5C25.147,5,5,25.147,5,50c0,24.853,20.147,45,45,45s45-20.147,45-45C95,25.147,74.853,5,50,5z M76.916,69.497  c-5.908,1.39-9.384-3.939-9.384-3.939l-6.372-9.732H50.85h-0.349h-0.408h-0.349h-10.31l-6.372,9.732c0,0-3.476,5.329-9.384,3.939  s-4.402-6.487-4.402-6.487l4.287-24.444c0,0,1.739-7.646,9.384-7.994c7.646-0.347,10.658,4.75,10.658,4.75h5.909h1.566h5.909  c0,0,3.012-5.098,10.658-4.75c7.646,0.347,9.384,7.994,9.384,7.994l4.287,24.444C81.318,63.01,82.824,68.107,76.916,69.497z"/></g>
</svg>
</g></svg>